#N canvas 410 156 559 452 10;
#X obj 71 361 *~;
#X obj 44 109 t b f;
#X obj 71 172 pack f f;
#X obj 166 20 r window-size;
#X obj 288 333 cos~;
#X obj 288 306 vline~;
#X obj 303 128 / 44.1;
#X obj 288 174 f;
#X msg 355 272 -0.25;
#X obj 44 22 r play-\$1;
#X obj 71 399 throw~ grain-bus;
#X obj 355 244 loadbang;
#X obj 336 83 r samplerate;
#X obj 336 105 / 1000;
#X obj 71 268 tabplay~;
#X msg 138 209 set tID-sample-\$1;
#X obj 166 41 t f f;
#X msg 222 111 bang;
#X obj 44 44 unpack f f f;
#X floatatom 116 80 5 0 0 0 - - -, f 5;
#X obj 288 374 env~;
#X floatatom 288 400 5 0 0 0 - - -, f 5;
#X floatatom 307 200 5 0 0 0 - - -, f 5;
#X obj 465 26 r env;
#X obj 5 22 inlet;
#X msg 446 140 set \$1 \$2;
#X msg 288 221 -0.25 \, 0.25 \$1;
#X connect 0 0 10 0;
#X connect 1 0 7 0;
#X connect 1 1 2 0;
#X connect 2 0 14 0;
#X connect 3 0 16 0;
#X connect 4 0 0 1;
#X connect 4 0 20 0;
#X connect 5 0 4 0;
#X connect 6 0 7 1;
#X connect 7 0 22 0;
#X connect 7 0 26 0;
#X connect 8 0 5 0;
#X connect 9 0 18 0;
#X connect 11 0 8 0;
#X connect 12 0 13 0;
#X connect 13 0 6 1;
#X connect 14 0 0 0;
#X connect 15 0 14 0;
#X connect 16 0 2 1;
#X connect 16 1 6 0;
#X connect 17 0 7 0;
#X connect 18 0 1 0;
#X connect 18 1 15 0;
#X connect 18 2 19 0;
#X connect 20 0 21 0;
#X connect 23 0 25 0;
#X connect 25 0 26 0;
#X connect 26 0 5 0;
