#N canvas 782 39 308 540 10;
#X obj 170 212 exp~;
#X obj 135 247 *~;
#X obj 340 -37 vsl 15 128 -5 -100 0 0 empty empty empty 0 -9 0 10 -257985
-1 -1 0 1;
#X obj 170 188 *~;
#X floatatom 307 183 5 0 0 0 - - -, f 5;
#X obj 284 -49 vsl 15 128 0 20 0 0 empty empty empty 0 -9 0 10 -262144
-1 -1 0 1;
#X msg 183 -39 0;
#X obj 291 147 mapping/curve -0.14;
#X obj 130 3 line~;
#X obj 303 -125 oscilloscope;
#X obj 261 142 vsl 15 128 0 10 0 0 empty empty empty 0 -9 0 10 -262144
-1 -1 0 1;
#X floatatom 269 282 5 0 0 0 - - -, f 5;
#X floatatom 261 104 5 0 0 0 - - -, f 5;
#X msg 130 -39 1 3000;
#X obj 129 -124 inlet;
#X obj 130 -74 t b b f;
#X obj 136 353 outlet~;
#X msg 242 56 4.5;
#X msg 220 231 4.5;
#X obj 136 282 *~ 4.5;
#X obj 130 92 *~ 4.5;
#X connect 0 0 1 1;
#X connect 1 0 19 0;
#X connect 2 0 7 0;
#X connect 3 0 0 0;
#X connect 5 0 12 0;
#X connect 5 0 20 1;
#X connect 6 0 8 0;
#X connect 7 0 3 1;
#X connect 7 0 4 0;
#X connect 8 0 20 0;
#X connect 10 0 11 0;
#X connect 10 0 19 1;
#X connect 13 0 8 0;
#X connect 14 0 15 0;
#X connect 15 0 13 0;
#X connect 15 1 6 0;
#X connect 15 2 2 0;
#X connect 17 0 20 1;
#X connect 18 0 19 1;
#X connect 19 0 16 0;
#X connect 20 0 3 0;
#X connect 20 0 1 0;
