#N canvas 88 22 606 630 10;
#X obj 181 298 atan;
#X obj 106 21 inlet;
#X obj 178 21 inlet;
#X text 114 0 x y;
#X obj 106 95 - \$1;
#X obj 191 94 - \$2;
#X obj 181 275 /;
#X obj 181 242 swap;
#X obj 247 243 < 0;
#X obj 181 198 t f f;
#X obj 181 466 *;
#X obj 181 497 +;
#X obj 247 266 pack;
#X obj 244 193 t f f;
#X obj 272 243 > 0;
#X obj 247 287 route 1;
#X obj 247 309 sel 0 1;
#X obj 181 536 *;
#X obj 106 125 pack;
#X obj 195 166 unpack;
#X obj 106 149 route 0;
#X obj 106 294 moses 0;
#X obj 181 588 outlet;
#X obj 181 565 * 57.2958;
#X obj 145 342 / 2;
#X obj 106 341 / -2;
#X obj 376 339 t b b;
#X obj 247 349 t b b;
#X msg 376 361 1;
#X msg 403 361 0;
#X msg 247 374 -1;
#X msg 372 449 1;
#X obj 372 424 t b b;
#X text 20 20 Target point.;
#X text 223 21 Reference point.;
#X text 232 588 Angle in degrees.;
#X text 241 82 Description: Returns the angle in degrees between two
2d points.;
#X text 187 0 x y;
#X obj 106 48 unpack f f;
#X obj 178 48 unpack f f;
#X obj 274 398 pi;
#X obj 399 480 pi;
#X obj 145 317 pi;
#X obj 106 318 pi;
#X obj 515 13 import hcs;
#X connect 0 0 10 0;
#X connect 1 0 38 0;
#X connect 2 0 39 0;
#X connect 4 0 18 0;
#X connect 5 0 18 1;
#X connect 6 0 0 0;
#X connect 7 0 6 0;
#X connect 7 1 6 1;
#X connect 8 0 12 0;
#X connect 9 0 7 0;
#X connect 9 1 8 0;
#X connect 10 0 11 0;
#X connect 11 0 17 0;
#X connect 12 0 15 0;
#X connect 13 0 7 1;
#X connect 13 1 14 0;
#X connect 14 0 12 1;
#X connect 15 0 16 0;
#X connect 15 1 26 0;
#X connect 16 0 27 0;
#X connect 16 1 32 0;
#X connect 17 0 23 0;
#X connect 18 0 20 0;
#X connect 19 0 9 0;
#X connect 19 1 13 0;
#X connect 20 0 21 0;
#X connect 20 1 19 0;
#X connect 21 0 43 0;
#X connect 21 1 42 0;
#X connect 23 0 22 0;
#X connect 24 0 23 0;
#X connect 25 0 23 0;
#X connect 26 0 28 0;
#X connect 26 1 29 0;
#X connect 27 0 30 0;
#X connect 27 1 40 0;
#X connect 28 0 10 1;
#X connect 28 0 17 1;
#X connect 29 0 11 1;
#X connect 30 0 10 1;
#X connect 30 0 17 1;
#X connect 31 0 10 1;
#X connect 31 0 17 1;
#X connect 32 0 31 0;
#X connect 32 1 41 0;
#X connect 38 0 4 0;
#X connect 38 1 5 0;
#X connect 39 0 4 1;
#X connect 39 1 5 1;
#X connect 40 0 11 1;
#X connect 41 0 11 1;
#X connect 42 0 24 0;
#X connect 43 0 25 0;
