#N canvas 0 22 1209 694 10;
#X obj 321 19 inlet~;
#X obj 321 308 phasor~;
#X obj 321 330 +~;
#X obj 321 352 cos~;
#X obj 321 374 +~ 1;
#X obj 321 396 *~ 0.5;
#X obj 321 261 mtof~;
#X obj 321 603 outlet~;
#X obj 390 229 / 127;
#X obj 390 293 pack f 50;
#X obj 390 352 line~;
#X obj 321 418 *~;
#X obj 746 310 phasor~;
#X obj 746 354 cos~;
#X obj 746 376 +~ 1;
#X obj 746 398 *~ 0.5;
#X obj 746 420 *~;
#X obj 746 279 mtof~;
#X obj 746 332 +~ 0.25;
#X obj 811 229 / 127;
#X obj 811 326 pack f 50;
#X obj 811 354 line~;
#X obj 458 304 phasor~;
#X obj 458 348 cos~;
#X obj 458 370 +~ 1;
#X obj 458 392 *~ 0.5;
#X obj 458 257 mtof~;
#X obj 746 603 outlet~;
#X obj 527 229 / 127;
#X obj 527 289 pack f 50;
#X obj 527 348 line~;
#X obj 458 414 *~;
#X obj 610 301 phasor~;
#X obj 610 345 cos~;
#X obj 610 367 +~ 1;
#X obj 610 389 *~ 0.5;
#X obj 610 411 *~;
#X obj 610 270 mtof~;
#X obj 675 229 / 127;
#X obj 675 317 pack f 50;
#X obj 675 345 line~;
#X obj 458 326 +~ 0.5;
#X obj 610 323 +~ 0.75;
#X obj 321 90 / 127;
#X obj 458 81 / 127;
#X obj 610 81 / 127;
#X obj 746 81 / 127;
#X obj 390 271 * 5;
#X obj 527 267 * 5;
#X obj 675 295 * 5;
#X obj 811 304 * 5;
#X obj 321 440 vd~ \$0-pe-chorus;
#X obj 458 533 vd~ \$0-pe-chorus;
#X obj 610 494 vd~ \$0-pe-chorus;
#X obj 746 442 vd~ \$0-pe-chorus;
#X obj 321 41 delwrite~ \$0-pe-chorus 100;
#X obj 106 128 hsl 128 15 0 127 0 1 \$0-chorus-rate-s \$0-chorus-rate-r
RATE 133 7 0 10 -262144 -1 -1 4600 1;
#X obj 106 143 hsl 128 15 0 127 0 1 \$0-chorus-depth-s \$0-chorus-depth-r
DEPTH 133 7 0 10 -262144 -1 -1 9100 1;
#X obj 321 64 t f f f f;
#X obj 118 212 t f f f f;
#X obj 321 511 *~ 0.5;
#X obj 746 550 *~ 0.5;
#X obj 321 547 +~;
#X obj 746 575 +~;
#X obj 321 134 - 64;
#X obj 458 137 - 64;
#X obj 610 131 - 64;
#X obj 746 136 - 64;
#X obj 321 112 * 96;
#X obj 458 115 * 96;
#X obj 610 109 * 96;
#X obj 746 114 * 96;
#X obj 321 156 sig~;
#X obj 458 159 sig~;
#X obj 610 153 sig~;
#X obj 746 158 sig~;
#X obj 321 192 +~;
#X obj 458 192 +~;
#X obj 610 192 +~;
#X obj 746 192 +~;
#X obj 518 20 inlet~;
#X text 495 0 RATE CV IN;
#X text 258 18 SIGNAL IN;
#X obj 390 401 +~;
#X obj 527 397 +~;
#X obj 675 394 +~;
#X obj 811 403 +~;
#X obj 792 127 inlet~;
#X text 790 108 DEPTH CV IN;
#X obj 792 150 *~ 5;
#X obj 103 120 cnv 5 5 5 empty empty CHORUS 0 0 0 12 -262144 -66577
0;
#X obj 104 167 cnv 5 5 5 empty empty LEFT 0 0 0 8 -262144 -66577 0
;
#X obj 179 109 cnv 5 5 5 empty empty RATE 0 0 0 8 -262144 -66577 0
;
#X obj 104 109 cnv 5 5 5 empty empty IN 0 0 0 8 -262144 -66577 0;
#X obj 247 108 cnv 5 5 5 empty empty DEPTH 0 0 0 8 -262144 -66577 0
;
#X obj 245 167 cnv 5 5 5 empty empty RIGHT 0 0 0 8 -262144 -66577 0
;
#X obj 518 42 *~ 96;
#X obj 150 120 cnv 5 5 5 empty \$0-instance-num 0 0 0 0 12 -262144
-66577 0;
#X connect 0 0 55 0;
#X connect 1 0 2 0;
#X connect 2 0 3 0;
#X connect 3 0 4 0;
#X connect 4 0 5 0;
#X connect 5 0 11 0;
#X connect 6 0 1 0;
#X connect 8 0 47 0;
#X connect 9 0 10 0;
#X connect 10 0 83 0;
#X connect 11 0 51 0;
#X connect 12 0 18 0;
#X connect 13 0 14 0;
#X connect 14 0 15 0;
#X connect 15 0 16 0;
#X connect 16 0 54 0;
#X connect 17 0 12 0;
#X connect 18 0 13 0;
#X connect 19 0 50 0;
#X connect 20 0 21 0;
#X connect 21 0 86 0;
#X connect 22 0 41 0;
#X connect 23 0 24 0;
#X connect 24 0 25 0;
#X connect 25 0 31 0;
#X connect 26 0 22 0;
#X connect 28 0 48 0;
#X connect 29 0 30 0;
#X connect 30 0 84 0;
#X connect 31 0 52 0;
#X connect 32 0 42 0;
#X connect 33 0 34 0;
#X connect 34 0 35 0;
#X connect 35 0 36 0;
#X connect 36 0 53 0;
#X connect 37 0 32 0;
#X connect 38 0 49 0;
#X connect 39 0 40 0;
#X connect 40 0 85 0;
#X connect 41 0 23 0;
#X connect 42 0 33 0;
#X connect 43 0 68 0;
#X connect 44 0 69 0;
#X connect 45 0 70 0;
#X connect 46 0 71 0;
#X connect 47 0 9 0;
#X connect 48 0 29 0;
#X connect 49 0 39 0;
#X connect 50 0 20 0;
#X connect 51 0 60 0;
#X connect 52 0 61 0;
#X connect 53 0 60 0;
#X connect 54 0 61 0;
#X connect 56 0 58 0;
#X connect 57 0 59 0;
#X connect 58 0 43 0;
#X connect 58 1 44 0;
#X connect 58 2 45 0;
#X connect 58 3 46 0;
#X connect 59 0 8 0;
#X connect 59 1 28 0;
#X connect 59 2 38 0;
#X connect 59 3 19 0;
#X connect 60 0 62 0;
#X connect 61 0 63 0;
#X connect 62 0 7 0;
#X connect 63 0 27 0;
#X connect 64 0 72 0;
#X connect 65 0 73 0;
#X connect 66 0 74 0;
#X connect 67 0 75 0;
#X connect 68 0 64 0;
#X connect 69 0 65 0;
#X connect 70 0 66 0;
#X connect 71 0 67 0;
#X connect 72 0 76 0;
#X connect 73 0 77 0;
#X connect 74 0 78 0;
#X connect 75 0 79 0;
#X connect 76 0 6 0;
#X connect 77 0 26 0;
#X connect 78 0 37 0;
#X connect 79 0 17 0;
#X connect 80 0 96 0;
#X connect 83 0 11 1;
#X connect 84 0 31 1;
#X connect 85 0 36 1;
#X connect 86 0 16 1;
#X connect 87 0 89 0;
#X connect 89 0 83 1;
#X connect 89 0 84 1;
#X connect 89 0 85 1;
#X connect 89 0 86 1;
#X connect 96 0 76 1;
#X connect 96 0 77 1;
#X connect 96 0 78 1;
#X connect 96 0 79 1;
#X coords 0 -1 1 1 175 75 2 100 100;
