#N canvas 745 218 300 381 10;
#X obj 81 10 inlet;
#X obj 19 10 inlet;
#X obj 81 327 outlet;
#X obj 81 272 sqrt;
#X obj 19 137 t f f;
#X obj 19 166 *;
#X obj 81 241 +;
#X obj 81 204 t b f;
#X obj 81 137 t f f;
#X obj 81 166 *;
#X text 227 9 inlets;
#X obj 136 37 \$1;
#X obj 19 104 - 0;
#X obj 81 104 - 0;
#X text 227 59 \$3 = Xc;
#X text 227 75 \$4 = Yc;
#X text 227 43 \$2 = Ys;
#X text 227 27 \$1 = Xs;
#X obj 136 9 r INIT;
#X obj 81 297 / \$1;
#X connect 0 0 13 0;
#X connect 1 0 12 0;
#X connect 3 0 19 0;
#X connect 4 0 5 0;
#X connect 4 1 5 1;
#X connect 5 0 6 0;
#X connect 6 0 3 0;
#X connect 7 0 6 0;
#X connect 7 1 6 1;
#X connect 8 0 9 0;
#X connect 8 1 9 1;
#X connect 9 0 7 0;
#X connect 11 0 12 1;
#X connect 11 0 13 1;
#X connect 12 0 4 0;
#X connect 13 0 8 0;
#X connect 18 0 11 0;
#X connect 19 0 2 0;
