#N canvas 249 24 536 482 10;
#X obj 151 242 until;
#X obj 151 265 list append;
#X obj 240 292 bang;
#X msg 211 198 \; pd dsp \$1;
#X obj 151 -1 loadbang;
#X obj 151 47 \$1;
#X obj 15 388 print OSC_ALL_SYNTH;
#X obj 15 243 timer;
#X obj 43 218 bang;
#X obj 15 291 f;
#X obj 42 292 f;
#X obj 15 267 t f b;
#X obj 15 318 -;
#X obj 151 292 list split 5;
#X msg 339 198 \; threshold \$1;
#X msg 98 70 status;
#X msg 151 91 port 7771;
#X msg 151 69 set port \$1;
#X obj 401 5 import mrpeach;
#X obj 151 23 del 200;
#X obj 151 135 unpackOSC;
#X obj 151 113 udpreceive 7771;
#X obj 151 157 routeOSC /sensors /dsp /volume /threshold;
#X obj 151 388 s OSC_Blobs;
#X obj 151 179 t b l;
#X obj 293 440 sendOSC;
#X msg 313 313 connect 10.42.0.174 7772;
#X msg 293 291 disconnect;
#X obj 354 245 loadbang;
#X obj 321 372 spigot;
#X msg 385 337 1;
#X msg 354 337 0;
#X msg 321 395 send /sensors \$1 \$2 \$3 \$4 \$5;
#X obj 167 332 t l l;
#X msg 275 198 \; volume \$1 \;;
#X obj 296 199 print VOLUME;
#X connect 0 0 1 0;
#X connect 1 0 13 0;
#X connect 2 0 0 1;
#X connect 4 0 19 0;
#X connect 5 0 17 0;
#X connect 7 0 11 0;
#X connect 8 0 7 1;
#X connect 9 0 10 1;
#X connect 9 0 12 0;
#X connect 10 0 12 1;
#X connect 11 0 9 0;
#X connect 11 1 10 0;
#X connect 12 0 6 0;
#X connect 13 0 23 0;
#X connect 13 1 1 1;
#X connect 13 2 2 0;
#X connect 16 0 21 0;
#X connect 17 0 16 0;
#X connect 19 0 5 0;
#X connect 20 0 22 0;
#X connect 21 0 20 0;
#X connect 22 0 24 0;
#X connect 22 1 3 0;
#X connect 22 2 34 0;
#X connect 22 2 35 0;
#X connect 22 3 14 0;
#X connect 24 0 0 0;
#X connect 24 1 1 1;
#X connect 26 0 25 0;
#X connect 27 0 25 0;
#X connect 28 0 27 0;
#X connect 28 0 31 0;
#X connect 29 0 32 0;
#X connect 30 0 29 1;
#X connect 31 0 29 1;
#X connect 32 0 25 0;
#X connect 33 0 23 0;
#X connect 33 1 29 0;
