#N canvas 431 183 590 284 10;
#X text 99 155 data;
#X obj 10 28 cnv 15 100 50 empty empty empty 20 12 0 14 -191407 -66577
0;
#N canvas 0 50 450 300 (subpatch) 0;
#X array \$0-_ 1500 float 4;
#X coords 0 1 1499 -1 100 50 1;
#X restore 10 28 graph;
#X obj 333 176 pack f \$0;
#X text 368 86 <- table size;
#X obj 214 57 f \$1;
#X obj 189 29 inlet;
#X text 395 26 Argument \; \$1: tempo \;;
#X obj 11 13 cnv 12 60 12 empty empty oscilloscope~ 1 8 0 10 -262144
-66577 0;
#X obj 101 174 inlet~;
#X obj 183 236 tabwrite~ \$0-_;
#X obj 95 15 tgl 10 0 \$0-on \$0-on-in empty 17 7 0 10 -257985 -1 -1
1 1;
#X obj 183 139 metro 40;
#X obj 249 136 / 44.1;
#X obj 94 107 switch~;
#X msg 333 87 1500;
#X obj 189 82 moses 5;
#X text 188 9 tempo;
#X msg 333 203 \; \$2-_ resize \$1 \; \$2-_ const 0 \;;
#X obj 333 3 loadbang;
#X obj 122 11 loadbang;
#X connect 3 0 18 0;
#X connect 5 0 16 0;
#X connect 6 0 16 0;
#X connect 9 0 10 0;
#X connect 11 0 12 0;
#X connect 11 0 14 0;
#X connect 12 0 10 0;
#X connect 13 0 12 1;
#X connect 15 0 13 0;
#X connect 16 1 12 1;
#X connect 19 0 15 0;
#X connect 19 0 5 0;
#X connect 20 0 11 0;
#X coords 0 -1 1 1 100 68 2 10 10;
