#N canvas 678 297 366 277 10;
#X obj 296 160 *~;
#X obj 296 191 +~;
#X obj 296 218 osc~;
#X obj 293 11 inlet;
#X obj 340 11 inlet;
#X obj 386 11 inlet;
#X obj 296 250 outlet~;
#X text 325 191 carrier frequency;
#X text 326 160 modulation depth;
#X obj 296 125 tabosc4~ \$1-pitchmod;
#X msg 193 85 set \$1-pitchmod;
#X obj 193 62 \$1;
#X obj 463 132 f;
#X obj 500 132 + 1;
#X obj 463 106 bng 15 250 50 0 empty empty empty 17 7 0 10 -262144
-1 -1;
#X floatatom 463 186 5 0 0 0 - - -, f 5;
#X obj 463 158 % 8;
#X obj 193 10 loadbang;
#X obj 212 166 print;
#X obj 293 35 t b f;
#X connect 0 0 1 0;
#X connect 1 0 2 0;
#X connect 2 0 6 0;
#X connect 3 0 19 0;
#X connect 4 0 0 1;
#X connect 5 0 1 1;
#X connect 9 0 0 0;
#X connect 10 0 9 0;
#X connect 11 0 10 0;
#X connect 12 0 13 0;
#X connect 12 0 16 0;
#X connect 13 0 12 1;
#X connect 14 0 12 0;
#X connect 16 0 15 0;
#X connect 17 0 11 0;
#X connect 19 0 11 0;
#X connect 19 1 9 0;
