#N canvas 17 24 711 677 10;
#X obj 120 502 osc~;
#X msg 404 502 0;
#X msg 19 694 symbol W;
#X obj 119 248 route \$1;
#X obj 19 719 labdoma_mapping \$2;
#X obj 404 435 bang;
#X obj 146 644 *~;
#X obj 19 741 curve_exp;
#X text 87 337 posX;
#X text 174 337 posY;
#X obj 119 287 unpack float float float float;
#X obj 158 409 mtof;
#X obj 206 502 osc~;
#X obj 146 572 *~;
#X obj 119 337 moses 0;
#X obj 20 309 print;
#X obj 20 246 bng 15 250 50 0 empty empty empty 17 7 0 10 -262144 -1
-1;
#X obj 20 222 inlet;
#X obj 20 266 \$1;
#X obj 48 246 bng 15 250 50 0 empty empty empty 17 7 0 10 -262144 -1
-1;
#X obj 48 266 \$2;
#X obj 404 391 change;
#X obj 443 435 - 0;
#X obj 457 222 r threshold;
#X obj 206 337 moses 0;
#X obj 472 435 t b f;
#X msg 119 409 0;
#X msg 206 379 0;
#X obj 120 480 vline~;
#X obj 119 388 bang;
#X obj 206 358 bang;
#X obj 206 480 vline~;
#X obj 158 388 + 18;
#X obj 245 378 / 60;
#X obj 245 420 * 60;
#X obj 245 358 clip 0 60;
#X obj 457 502 / 1;
#X obj 472 479 - 0;
#X obj 404 413 moses 0;
#X text 178 248 <-- \$1 blobID \$2-matrixPosX \$3-matrixPosY \$4-blobPressure
\$5-blobPerimeter;
#X obj 487 331 > 0;
#X obj 487 352 change;
#X obj 404 331 trigger f f;
#X obj 487 374 s \$2_\$1-STATE;
#X obj 119 221 r OSC_SYNTH_\$2;
#X obj 344 222 r SYNTH_SUMM_\$2;
#X obj 147 826 throw~ leftSig-\$2;
#X obj 366 826 throw~ reightSig-\$2;
#X obj 136 362 s \$2_\$1_x;
#X obj 202 661 r \$2_\$1_x;
#X obj 202 684 / 60;
#X obj 380 705 / 1;
#X obj 380 661 t b f;
#X msg 380 683 1;
#N canvas 497 118 249 300 panning 0;
#X obj 7 863 outlet~;
#X obj 128 862 outlet~;
#X msg 44 738 \$1 20;
#X obj 6 824 *~;
#X obj 128 824 *~;
#X msg 142 741 \$1 20;
#X obj 142 644 t b f;
#X obj 44 716 * 0.5;
#X obj 44 641 t b f;
#X obj 71 693 + 1;
#X obj 71 672 * -1;
#X obj 45 791 *~;
#X obj 143 793 *~;
#X obj 6 604 inlet~;
#X obj 136 612 inlet;
#X floatatom 202 734 5 0 0 0 - - -, f 5;
#X obj 142 696 * 1;
#X msg 142 668 0.5;
#X msg 44 672 0.5;
#X obj 44 760 vline~;
#X obj 142 761 vline~;
#X connect 2 0 19 0;
#X connect 3 0 0 0;
#X connect 4 0 1 0;
#X connect 5 0 20 0;
#X connect 6 0 17 0;
#X connect 6 1 16 1;
#X connect 7 0 2 0;
#X connect 8 0 18 0;
#X connect 8 1 10 0;
#X connect 9 0 7 1;
#X connect 10 0 9 0;
#X connect 11 0 3 1;
#X connect 12 0 4 1;
#X connect 13 0 3 0;
#X connect 13 0 4 0;
#X connect 14 0 8 0;
#X connect 14 0 6 0;
#X connect 16 0 5 0;
#X connect 16 0 15 0;
#X connect 17 0 16 0;
#X connect 18 0 7 0;
#X connect 19 0 11 0;
#X connect 19 0 11 1;
#X connect 20 0 12 0;
#X connect 20 0 12 1;
#X restore 146 719 pd panning;
#X obj 147 801 *~;
#X obj 366 802 *~;
#X obj 341 639 moses 1;
#X floatatom 218 719 5 0 0 0 - - -, f 5;
#X obj 380 748 vline~;
#X obj 458 402 t f f;
#X obj 280 639 r ALL_OFF;
#X msg 280 662 0;
#X msg 472 457 255;
#X obj 206 524 *~ 1.2;
#X obj 120 524 *~ 1.2;
#X obj 599 523 vline~;
#X obj 599 544 cos~;
#X obj 599 447 r env;
#X msg 599 471 set \$1 \$2;
#X msg 599 501 -0.25 \, 0.25 \$1;
#X msg 543 471 -0.25;
#X obj 543 447 loadbang;
#X obj 404 593 cyclone/curve~;
#X msg 206 457 \$1 20;
#X msg 120 457 \$1 20;
#X obj 404 551 pack f f;
#X msg 404 572 \$1 \$2 -0.2;
#X obj 546 222 r ATTACK_\$2;
#X obj 146 669 hip~ 3;
#X obj 146 692 lop~ 300;
#X floatatom 286 446 5 0 0 0 - - -, f 5;
#X obj 245 398 mapping/curve -0.1;
#X floatatom 465 528 5 0 0 0 - - -, f 5;
#X msg 380 726 \$1 100;
#X text 500 568 1-destination value2- time (ms)3- curve factor (-1
to 1);
#X connect 0 0 65 0;
#X connect 1 0 76 0;
#X connect 2 0 4 0;
#X connect 3 0 10 0;
#X connect 5 0 1 0;
#X connect 6 0 79 0;
#X connect 10 0 14 0;
#X connect 10 1 24 0;
#X connect 10 2 42 0;
#X connect 11 0 75 0;
#X connect 12 0 64 0;
#X connect 13 0 6 0;
#X connect 14 0 29 0;
#X connect 14 1 32 0;
#X connect 14 1 48 0;
#X connect 16 0 18 0;
#X connect 18 0 15 0;
#X connect 19 0 20 0;
#X connect 20 0 15 0;
#X connect 21 0 38 0;
#X connect 22 0 36 0;
#X connect 23 0 60 0;
#X connect 24 0 30 0;
#X connect 24 1 35 0;
#X connect 25 0 63 0;
#X connect 25 1 37 1;
#X connect 26 0 75 0;
#X connect 27 0 74 0;
#X connect 28 0 0 0;
#X connect 29 0 26 0;
#X connect 30 0 27 0;
#X connect 31 0 12 0;
#X connect 32 0 11 0;
#X connect 33 0 82 0;
#X connect 34 0 74 0;
#X connect 34 0 81 0;
#X connect 35 0 33 0;
#X connect 36 0 76 0;
#X connect 36 0 83 0;
#X connect 37 0 36 1;
#X connect 38 0 5 0;
#X connect 38 1 22 0;
#X connect 40 0 41 0;
#X connect 41 0 43 0;
#X connect 42 0 21 0;
#X connect 42 1 40 0;
#X connect 44 0 3 0;
#X connect 45 0 57 0;
#X connect 49 0 50 0;
#X connect 50 0 54 1;
#X connect 50 0 58 0;
#X connect 51 0 84 0;
#X connect 52 0 53 0;
#X connect 52 1 51 1;
#X connect 53 0 51 0;
#X connect 54 0 55 0;
#X connect 54 1 56 0;
#X connect 55 0 46 0;
#X connect 56 0 47 0;
#X connect 57 1 52 0;
#X connect 59 0 56 1;
#X connect 59 0 55 1;
#X connect 60 0 25 0;
#X connect 60 1 22 1;
#X connect 61 0 62 0;
#X connect 62 0 84 0;
#X connect 63 0 37 0;
#X connect 64 0 13 1;
#X connect 65 0 13 0;
#X connect 66 0 67 0;
#X connect 68 0 69 0;
#X connect 69 0 70 0;
#X connect 70 0 66 0;
#X connect 71 0 66 0;
#X connect 72 0 71 0;
#X connect 73 0 6 1;
#X connect 74 0 31 0;
#X connect 75 0 28 0;
#X connect 76 0 77 0;
#X connect 77 0 73 0;
#X connect 78 0 76 1;
#X connect 79 0 80 0;
#X connect 80 0 54 0;
#X connect 82 0 34 0;
#X connect 84 0 59 0;
