#N canvas 592 226 931 677 10;
#X obj 64 318 osc~;
#X msg 651 450 symbol W;
#X obj 651 475 labdoma_mapping \$2;
#X obj 131 430 *~;
#X obj 651 497 curve_exp;
#X obj 123 145 mtof;
#X obj 220 318 osc~;
#X obj 131 388 *~;
#X obj 64 123 moses 0;
#X obj 25 8 inlet;
#X obj 285 115 moses 0;
#X obj 64 145 bang;
#X obj 324 206 * 60;
#X obj 214 635 throw~ leftSig-\$2;
#X obj 382 635 throw~ reightSig-\$2;
#X obj 625 226 / 1;
#X obj 625 182 t b f;
#X msg 625 204 1;
#X obj 214 526 *~;
#X obj 625 339 vline~;
#X obj 526 135 r ALL_OFF;
#X msg 526 157 0;
#X obj 409 337 pack f f;
#X obj 131 455 hip~ 3;
#X obj 131 478 lop~ 300;
#X obj 324 184 mapping/curve -0.1;
#X obj 454 8 r RELEASE_\$2;
#X obj 454 29 t f f;
#X obj 220 235 pack 0 f;
#X obj 64 166 pack 0 f;
#X obj 324 227 pack f 1;
#X obj 123 166 pack f 1;
#X obj 409 359 vline~;
#X obj 64 297 vline~;
#X obj 220 296 vline~;
#X obj 625 247 pack f 100;
#X obj 214 552 chorus;
#X obj 586 160 moses 1;
#X obj 586 135 r SUMM;
#X obj 285 93 r \$1-posY;
#X obj 64 71 r \$1-posX;
#X obj 409 269 r \$1-depth;
#X obj 220 145 r \$1-alive;
#X obj 220 166 sel 0;
#X obj 64 102 * 64;
#X obj 220 340 *~ 0.2;
#X obj 64 340 *~ 0.2;
#X msg 628 298 1;
#X obj 711 289 loadbang;
#X connect 0 0 46 0;
#X connect 1 0 2 0;
#X connect 3 0 23 0;
#X connect 5 0 31 0;
#X connect 6 0 45 0;
#X connect 7 0 3 0;
#X connect 8 0 11 0;
#X connect 8 1 5 0;
#X connect 10 1 25 0;
#X connect 11 0 29 0;
#X connect 12 0 30 0;
#X connect 15 0 35 0;
#X connect 16 0 17 0;
#X connect 16 1 15 1;
#X connect 17 0 15 0;
#X connect 18 0 36 0;
#X connect 19 0 18 1;
#X connect 20 0 21 0;
#X connect 21 0 35 0;
#X connect 22 0 32 0;
#X connect 23 0 24 0;
#X connect 24 0 18 0;
#X connect 25 0 12 0;
#X connect 26 0 27 0;
#X connect 27 0 22 1;
#X connect 27 1 28 1;
#X connect 27 1 29 1;
#X connect 28 0 34 0;
#X connect 29 0 33 0;
#X connect 30 0 34 0;
#X connect 31 0 33 0;
#X connect 32 0 3 1;
#X connect 33 0 0 0;
#X connect 34 0 6 0;
#X connect 36 0 13 0;
#X connect 36 1 14 0;
#X connect 37 1 16 0;
#X connect 38 0 37 0;
#X connect 39 0 10 0;
#X connect 40 0 44 0;
#X connect 41 0 22 0;
#X connect 42 0 43 0;
#X connect 43 0 28 0;
#X connect 44 0 8 0;
#X connect 45 0 7 1;
#X connect 46 0 7 0;
#X connect 47 0 19 0;
#X connect 48 0 47 0;
