#N canvas 169 165 349 337 10;
#X obj 144 177 *~;
#X obj 144 208 +~;
#X obj 144 235 osc~;
#X obj 144 28 inlet;
#X obj 144 267 outlet~;
#X text 173 208 carrier frequency;
#X text 174 177 modulation depth;
#X obj 144 142 tabosc4~ \$1-pitchmod;
#X msg 84 76 set \$1-pitchmod;
#X obj 84 53 \$1;
#X obj 84 28 loadbang;
#X obj 297 28 inlet carrier;
#X obj 191 28 inlet modulation;
#X obj 144 108 sig~;
#X connect 0 0 1 0;
#X connect 1 0 2 0;
#X connect 2 0 4 0;
#X connect 3 0 13 0;
#X connect 7 0 0 0;
#X connect 8 0 7 0;
#X connect 9 0 8 0;
#X connect 10 0 9 0;
#X connect 11 0 1 1;
#X connect 12 0 0 1;
#X connect 13 0 7 0;
