#N canvas 157 24 868 660 10;
#X obj 332 60 > 0;
#X obj 332 82 change;
#X obj 577 34 route \$1;
#X obj -37 80 print;
#X obj -37 17 bng 15 250 50 0 empty empty empty 17 7 0 10 -262144 -1
-1;
#X obj 29 16 inlet;
#X obj -37 37 \$1;
#X obj 0 17 bng 15 250 50 0 empty empty empty 17 7 0 10 -262144 -1
-1;
#X obj 0 37 \$2;
#X obj 107 447 *~;
#X obj 110 266 synth_fm \$1;
#X obj 577 55 unpack float float float float;
#X obj -42 408 i;
#N canvas 166 123 223 291 impact_velocity 0;
#X obj 74 46 inlet;
#X obj 36 264 outlet;
#X obj 36 184 onebang;
#X obj 74 124 bang;
#X obj 36 215 f 0;
#X obj 113 124 t b f;
#X obj 74 97 moses 0;
#X connect 0 0 6 0;
#X connect 2 0 4 0;
#X connect 3 0 2 1;
#X connect 4 0 1 0;
#X connect 5 0 2 0;
#X connect 5 1 4 1;
#X connect 6 0 3 0;
#X connect 6 1 5 0;
#X restore 370 215 pd impact_velocity;
#N canvas 827 95 450 300 control_structure 0;
#X obj 21 13 inlet;
#X obj 101 13 inlet;
#X obj 181 13 inlet;
#X obj 311 13 inlet;
#X text 59 13 posX;
#X text 140 13 posY;
#X text 220 13 posZ;
#X restore -42 499 pd control_structure;
#X obj -42 452 mtof;
#X floatatom -42 474 5 0 0 0 - - -, f 5;
#X obj 608 399 bell-env~;
#X obj 332 331 cyclone/curve~;
#X obj -42 386 * 44;
#X obj -42 430 + 30;
#X obj 273 423 r ALL_OFF;
#X obj 194 16 r MATERIALS;
#X obj 577 13 r OSC_SYNTH_\$2;
#X obj 337 423 r SYNTH_SUMM_\$2;
#X obj 244 146 s \$2_\$1-STATE;
#N canvas 316 63 692 556 materials 0;
#X obj 184 478 bp~ 440 80;
#X obj 263 478 bp~ 440 80;
#X obj 342 478 bp~ 440 80;
#X obj 422 478 bp~ 440 80;
#X obj 436 301 unpack 1 2 3 4 5;
#X obj 212 417 line;
#X obj 530 417 line;
#X obj 450 417 line;
#X obj 370 418 line;
#X obj 291 417 line;
#X obj 68 50 inlet~;
#X text 662 111 metal;
#X text 660 133 glass 2;
#X text 632 221 wood;
#X msg 514 244 109 230 352 413 10;
#X msg 514 178 1245 1503 2131 2575 100;
#X text 641 199 plastic;
#X text 661 178 china;
#X text 661 155 glass 1;
#X text 633 243 cardboard;
#X msg 514 200 627 781 972 1184 70;
#X msg 514 134 2312 2466 3200 5314 380;
#X msg 513 156 1679 1233 4251 4640 340;
#X msg 514 222 221 333 426 527 40;
#X msg 514 112 3454 5645 6433 8945 200;
#X obj 430 87 sel 0 1 2 3 4 5 6;
#X obj 430 54 inlet;
#X obj 317 559 outlet~;
#X obj 291 395 pack f 100;
#X obj 212 395 pack f 100;
#X obj 530 395 pack f 100;
#X obj 450 395 pack f 100;
#X obj 370 395 pack f 100;
#X connect 0 0 27 0;
#X connect 1 0 27 0;
#X connect 2 0 27 0;
#X connect 3 0 27 0;
#X connect 4 0 29 0;
#X connect 4 1 28 0;
#X connect 4 2 32 0;
#X connect 4 3 31 0;
#X connect 4 4 30 0;
#X connect 5 0 0 1;
#X connect 6 0 0 2;
#X connect 6 0 1 2;
#X connect 6 0 2 2;
#X connect 6 0 3 2;
#X connect 7 0 3 1;
#X connect 8 0 2 1;
#X connect 9 0 1 1;
#X connect 10 0 0 0;
#X connect 10 0 3 0;
#X connect 10 0 2 0;
#X connect 10 0 1 0;
#X connect 14 0 4 0;
#X connect 15 0 4 0;
#X connect 20 0 4 0;
#X connect 21 0 4 0;
#X connect 22 0 4 0;
#X connect 23 0 4 0;
#X connect 24 0 4 0;
#X connect 25 0 14 0;
#X connect 25 1 23 0;
#X connect 25 2 20 0;
#X connect 25 3 15 0;
#X connect 25 4 22 0;
#X connect 25 5 21 0;
#X connect 25 6 24 0;
#X connect 26 0 25 0;
#X connect 28 0 9 0;
#X connect 29 0 5 0;
#X connect 30 0 6 0;
#X connect 31 0 7 0;
#X connect 32 0 8 0;
#X restore 107 517 pd materials;
#X obj 685 16 import moonlib;
#X obj 107 614 throw~ leftSig-\$2;
#X obj 361 614 throw~ reightSig-\$2;
#X obj 376 513 / 1;
#X obj 376 469 t b f;
#X msg 376 491 1;
#N canvas 433 184 253 300 freq_mode 0;
#X msg 66 225 256;
#X msg 82 246 288;
#X msg 98 267 320;
#X msg 114 288 352;
#X msg 130 309 384;
#X msg 146 330 416;
#X msg 34 183 448;
#X msg 50 204 480;
#X obj 34 347 change;
#X obj 34 156 select 0 1 2 3 4 5 6 7;
#X obj 34 131 i;
#X obj 34 109 * 7;
#X connect 0 0 8 0;
#X connect 1 0 8 0;
#X connect 2 0 8 0;
#X connect 3 0 8 0;
#X connect 4 0 8 0;
#X connect 5 0 8 0;
#X connect 6 0 8 0;
#X connect 7 0 8 0;
#X connect 9 0 6 0;
#X connect 9 1 7 0;
#X connect 9 2 0 0;
#X connect 9 3 1 0;
#X connect 9 4 2 0;
#X connect 9 5 3 0;
#X connect 9 6 4 0;
#X connect 9 7 5 0;
#X connect 10 0 9 0;
#X connect 11 0 10 0;
#X restore -37 551 pd freq_mode;
#N canvas 497 118 249 300 panning 0;
#X obj 7 863 outlet~;
#X obj 128 862 outlet~;
#X msg 44 738 \$1 20;
#X obj 6 824 *~;
#X obj 128 824 *~;
#X msg 142 741 \$1 20;
#X obj 142 644 t b f;
#X obj 44 716 * 0.5;
#X obj 44 641 t b f;
#X obj 71 693 + 1;
#X obj 71 672 * -1;
#X obj 45 791 *~;
#X obj 143 793 *~;
#X obj 6 604 inlet~;
#X obj 136 612 inlet;
#X floatatom 202 734 5 0 0 0 - - -, f 5;
#X obj 142 696 * 1;
#X msg 142 668 0.5;
#X msg 44 672 0.5;
#X obj 44 760 vline~;
#X obj 142 761 vline~;
#X connect 2 0 19 0;
#X connect 3 0 0 0;
#X connect 4 0 1 0;
#X connect 5 0 20 0;
#X connect 6 0 17 0;
#X connect 6 1 16 1;
#X connect 7 0 2 0;
#X connect 8 0 18 0;
#X connect 8 1 10 0;
#X connect 9 0 7 1;
#X connect 10 0 9 0;
#X connect 11 0 3 1;
#X connect 12 0 4 1;
#X connect 13 0 3 0;
#X connect 13 0 4 0;
#X connect 14 0 8 0;
#X connect 14 0 6 0;
#X connect 16 0 5 0;
#X connect 16 0 15 0;
#X connect 17 0 16 0;
#X connect 18 0 7 0;
#X connect 19 0 11 0;
#X connect 19 0 11 1;
#X connect 20 0 12 0;
#X connect 20 0 12 1;
#X restore 610 374 pd panning;
#X obj 107 589 *~;
#X obj 361 590 *~;
#X obj 337 447 moses 1;
#X floatatom 685 374 5 0 0 0 - - -, f 5;
#X obj 107 472 hip~ 3;
#X obj 107 495 lop~ 300;
#X obj 376 556 vline~;
#X msg 273 470 0;
#X obj 413 376 s SYNTH_FREE;
#X obj 413 353 pack \$2 \$1;
#X obj 370 239 r ATTACK_0;
#X obj 667 345 / 60;
#X obj 109 176 loadbang;
#X obj 758 76 s \$0-zone;
#X obj 577 76 s \$0-posX;
#X obj 637 76 s \$0-posY;
#X obj 698 76 s \$0-posZ;
#X msg 333 308 \$1 \$2 -0.7 0 \$3 -0.3;
#X msg 109 198 1000;
#X text 169 287 1 - destination value2 - time (ms)3 - curve factor
(-1 to 1);
#X obj 667 322 r \$0-posY;
#X obj -42 359 distance_target 32 32;
#X obj 620 246 s \$0-XX;
#X obj 581 105 r \$0-posX;
#X obj 581 128 moses 0;
#X obj 645 128 moses 0;
#X obj 645 105 r \$0-posY;
#X obj 684 246 s \$0-YY;
#X obj 711 128 moses 0;
#X obj 711 105 r \$0-zone;
#X obj 750 216 s \$0-ZONE;
#X obj 620 150 moses 64;
#X obj 684 150 moses 64;
#X obj 750 150 moses 200;
#X obj 620 172 / 64;
#X obj 684 172 / 64;
#X floatatom 693 194 5 0 0 0 - - -, f 5;
#X floatatom 629 195 5 0 0 0 - - -, f 5;
#X obj 334 146 metro;
#X obj 455 36 r RELEASE_0;
#X obj 332 37 r \$0-posZ;
#X obj 370 192 print METRO-\$1;
#X obj 401 36 r \$0-XX;
#X obj 333 286 pack 0.15 f f;
#X obj 173 224 * 256;
#X obj 173 176 r \$0-XX;
#X obj 225 220 mtof;
#X obj 225 176 r \$0-YY;
#X floatatom 409 82 5 0 0 0 - - -, f 5;
#X obj 401 59 * 1000;
#X obj 469 59 r \$0-posZ;
#X obj 469 103 moses 0;
#X floatatom 523 104 5 0 0 0 - - -, f 5;
#X floatatom 529 264 5 0 0 0 - - -, f 5;
#X obj 469 81 - 100;
#X obj 508 125 moses 140;
#X obj 508 147 / 140;
#X obj 508 213 abs;
#X obj 266 83 pipe 0.1;
#X obj 620 216 change;
#X obj 684 216 change;
#X msg 376 535 \$1 60;
#X floatatom 130 231 5 0 0 0 - - -, f 5;
#X floatatom 238 254 5 0 0 0 - - -, f 5;
#X obj 225 197 * 70;
#X obj 508 169 * 1000;
#X obj 508 191 - 1000;
#X obj 8 240 min~;
#X obj 33 187 -~ 1;
#X obj 33 212 *~ -50;
#X obj 7 123 mtof;
#X obj 7 154 phasor~ 220;
#X connect 0 0 1 0;
#X connect 1 0 25 0;
#X connect 1 0 73 0;
#X connect 2 0 11 0;
#X connect 4 0 6 0;
#X connect 6 0 3 0;
#X connect 7 0 8 0;
#X connect 8 0 3 0;
#X connect 9 0 39 0;
#X connect 10 0 9 0;
#X connect 11 0 49 0;
#X connect 11 1 50 0;
#X connect 11 2 51 0;
#X connect 11 3 48 0;
#X connect 12 0 20 0;
#X connect 15 0 16 0;
#X connect 18 0 9 1;
#X connect 18 1 44 0;
#X connect 19 0 12 0;
#X connect 20 0 15 0;
#X connect 21 0 42 0;
#X connect 22 0 26 1;
#X connect 23 0 2 0;
#X connect 24 0 37 0;
#X connect 26 0 35 0;
#X connect 26 0 36 0;
#X connect 30 0 96 0;
#X connect 31 0 32 0;
#X connect 31 1 30 1;
#X connect 32 0 30 0;
#X connect 35 0 28 0;
#X connect 36 0 29 0;
#X connect 37 1 31 0;
#X connect 39 0 40 0;
#X connect 40 0 26 0;
#X connect 41 0 36 1;
#X connect 41 0 35 1;
#X connect 42 0 96 0;
#X connect 44 0 43 0;
#X connect 45 0 78 1;
#X connect 46 0 34 1;
#X connect 46 0 38 0;
#X connect 47 0 53 0;
#X connect 52 0 18 0;
#X connect 53 0 10 0;
#X connect 55 0 46 0;
#X connect 56 0 19 0;
#X connect 58 0 60 0;
#X connect 59 1 66 0;
#X connect 60 1 67 0;
#X connect 61 0 59 0;
#X connect 63 1 68 0;
#X connect 64 0 63 0;
#X connect 66 0 69 0;
#X connect 67 0 70 0;
#X connect 69 0 72 0;
#X connect 69 0 94 0;
#X connect 70 0 71 0;
#X connect 70 0 95 0;
#X connect 73 0 78 0;
#X connect 75 0 0 0;
#X connect 77 0 84 0;
#X connect 78 0 52 0;
#X connect 79 0 10 2;
#X connect 80 0 79 0;
#X connect 80 0 97 0;
#X connect 81 0 98 0;
#X connect 81 0 10 1;
#X connect 82 0 99 0;
#X connect 84 0 83 0;
#X connect 84 0 73 1;
#X connect 85 0 89 0;
#X connect 86 1 87 0;
#X connect 86 1 90 0;
#X connect 89 0 86 0;
#X connect 90 0 91 0;
#X connect 91 0 100 0;
#X connect 92 0 78 2;
#X connect 92 0 88 0;
#X connect 94 0 57 0;
#X connect 95 0 62 0;
#X connect 96 0 41 0;
#X connect 99 0 81 0;
#X connect 100 0 101 0;
#X connect 101 0 92 0;
#X connect 103 0 104 0;
#X connect 104 0 102 1;
#X connect 105 0 106 0;
#X connect 106 0 102 0;
#X connect 106 0 103 0;
