#N canvas 349 58 868 660 10;
#X text 61 99 posX;
#X text 200 99 posY;
#X obj 317 108 > 0;
#X obj 317 129 change;
#X obj 95 40 route \$1;
#X obj -37 80 print;
#X obj -37 17 bng 15 250 50 0 empty empty empty 17 7 0 10 -262144 -1
-1;
#X obj 39 16 inlet;
#X obj -37 37 \$1;
#X obj 0 17 bng 15 250 50 0 empty empty empty 17 7 0 10 -262144 -1
-1;
#X obj 0 37 \$2;
#X obj 134 389 *~;
#X obj 104 276 synth_fm \$1;
#X obj 95 76 unpack float float float float;
#X text 228 41 <-- \$1 blobID \$2-matrixPosX \$3-matrixPosY \$4-blobPresure
\$5-blobPerimeter;
#X obj 95 99 change;
#X obj 154 99 change;
#X obj 154 120 moses 0;
#X obj 95 120 moses 0;
#X obj 270 108 t f f;
#X obj -10 388 i;
#N canvas 263 111 327 420 impact_velocity 0;
#X obj 94 30 inlet;
#X obj 53 370 outlet;
#X obj 250 30 r threshold;
#X obj 94 81 moses 0;
#X obj 84 195 + 1;
#X obj 53 194 f;
#X obj 53 268 onebang;
#X obj 114 195 % 2;
#X obj 250 54 change;
#X obj 111 369 print OUTPUT;
#X obj 94 108 bang;
#X msg 68 151 0;
#X obj 53 299 f 0;
#X obj 133 109 t b f f;
#X obj 234 222 -;
#X obj 53 247 sel 1;
#X floatatom 87 332 5 0 0 0 - - -, f 5;
#X obj 36 72 print;
#X connect 0 0 3 0;
#X connect 2 0 8 0;
#X connect 3 0 10 0;
#X connect 3 1 13 0;
#X connect 4 0 7 0;
#X connect 5 0 4 0;
#X connect 5 0 15 0;
#X connect 6 0 12 0;
#X connect 7 0 5 1;
#X connect 8 0 14 1;
#X connect 10 0 6 1;
#X connect 10 0 11 0;
#X connect 11 0 5 1;
#X connect 12 0 1 0;
#X connect 12 0 16 0;
#X connect 13 0 5 0;
#X connect 13 1 12 1;
#X connect 13 2 14 0;
#X connect 15 0 6 0;
#X restore 271 185 pd impact_velocity;
#X obj 586 418 adsr~;
#X obj -10 339 distance_target 30;
#N canvas 827 95 450 300 control_structure 0;
#X obj 21 13 inlet;
#X obj 101 13 inlet;
#X obj 181 13 inlet;
#X obj 311 13 inlet;
#X text 59 13 posX;
#X text 140 13 posY;
#X text 220 13 posZ;
#X restore -42 499 pd control_structure;
#X obj -10 432 mtof;
#X floatatom -10 454 5 0 0 0 - - -, f 5;
#X obj 568 512 bell-env~;
#X obj 271 341 cyclone/curve~;
#X obj 135 214 * 4;
#X obj -10 366 * 44;
#X obj 584 341 pack f f f f;
#X obj 662 257 r RELEASE;
#X obj 623 236 r SUSTAIN;
#X obj 584 214 r DECAY;
#X obj -10 410 + 30;
#X obj 193 214 * 12;
#X obj 272 417 r ALL_OFF;
#X obj 586 395 r adsr_controls;
#X obj 584 366 s adsr_controls;
#X obj 206 16 r MATERIALS;
#X obj 95 17 r OSC_SYNTH_\$2;
#X obj 349 16 r SYNTH_SUMM_\$2;
#X obj 317 151 s \$2_\$1-STATE;
#N canvas 316 63 692 556 materials 0;
#X obj 184 478 bp~ 440 80;
#X obj 263 478 bp~ 440 80;
#X obj 342 478 bp~ 440 80;
#X obj 422 478 bp~ 440 80;
#X obj 436 301 unpack 1 2 3 4 5;
#X obj 212 417 line;
#X obj 530 417 line;
#X obj 450 417 line;
#X obj 370 418 line;
#X obj 291 417 line;
#X obj 68 50 inlet~;
#X text 662 111 metal;
#X text 660 133 glass 2;
#X text 632 221 wood;
#X msg 514 244 109 230 352 413 10;
#X msg 514 178 1245 1503 2131 2575 100;
#X text 641 199 plastic;
#X text 661 178 china;
#X text 661 155 glass 1;
#X text 633 243 cardboard;
#X msg 514 200 627 781 972 1184 70;
#X msg 514 134 2312 2466 3200 5314 380;
#X msg 513 156 1679 1233 4251 4640 340;
#X msg 514 222 221 333 426 527 40;
#X msg 514 112 3454 5645 6433 8945 200;
#X obj 430 87 sel 0 1 2 3 4 5 6;
#X obj 430 54 inlet;
#X obj 317 559 outlet~;
#X obj 291 395 pack f 100;
#X obj 212 395 pack f 100;
#X obj 530 395 pack f 100;
#X obj 450 395 pack f 100;
#X obj 370 395 pack f 100;
#X connect 0 0 27 0;
#X connect 1 0 27 0;
#X connect 2 0 27 0;
#X connect 3 0 27 0;
#X connect 4 0 29 0;
#X connect 4 1 28 0;
#X connect 4 2 32 0;
#X connect 4 3 31 0;
#X connect 4 4 30 0;
#X connect 5 0 0 1;
#X connect 6 0 0 2;
#X connect 6 0 1 2;
#X connect 6 0 2 2;
#X connect 6 0 3 2;
#X connect 7 0 3 1;
#X connect 8 0 2 1;
#X connect 9 0 1 1;
#X connect 10 0 0 0;
#X connect 10 0 3 0;
#X connect 10 0 2 0;
#X connect 10 0 1 0;
#X connect 14 0 4 0;
#X connect 15 0 4 0;
#X connect 20 0 4 0;
#X connect 21 0 4 0;
#X connect 22 0 4 0;
#X connect 23 0 4 0;
#X connect 24 0 4 0;
#X connect 25 0 14 0;
#X connect 25 1 23 0;
#X connect 25 2 20 0;
#X connect 25 3 15 0;
#X connect 25 4 22 0;
#X connect 25 5 21 0;
#X connect 25 6 24 0;
#X connect 26 0 25 0;
#X connect 28 0 9 0;
#X connect 29 0 5 0;
#X connect 30 0 6 0;
#X connect 31 0 7 0;
#X connect 32 0 8 0;
#X restore 134 424 pd materials;
#X obj 685 16 import moonlib;
#X obj 135 614 throw~ leftSig-\$2;
#X obj 361 614 throw~ reightSig-\$2;
#X floatatom 145 242 5 0 0 0 - - -, f 5;
#X obj 144 148 s \$2_\$1_x;
#X obj 200 458 r \$2_\$1_x;
#X obj 200 481 / 60;
#X obj 375 483 / 1;
#X obj 375 439 t b f;
#X msg 375 461 1;
#N canvas 433 184 253 300 freq_mode 0;
#X msg 66 225 256;
#X msg 82 246 288;
#X msg 98 267 320;
#X msg 114 288 352;
#X msg 130 309 384;
#X msg 146 330 416;
#X msg 34 183 448;
#X msg 50 204 480;
#X obj 34 347 change;
#X obj 34 156 select 0 1 2 3 4 5 6 7;
#X obj 34 131 i;
#X obj 34 109 * 7;
#X connect 0 0 8 0;
#X connect 1 0 8 0;
#X connect 2 0 8 0;
#X connect 3 0 8 0;
#X connect 4 0 8 0;
#X connect 5 0 8 0;
#X connect 6 0 8 0;
#X connect 7 0 8 0;
#X connect 9 0 6 0;
#X connect 9 1 7 0;
#X connect 9 2 0 0;
#X connect 9 3 1 0;
#X connect 9 4 2 0;
#X connect 9 5 3 0;
#X connect 9 6 4 0;
#X connect 9 7 5 0;
#X connect 10 0 9 0;
#X connect 11 0 10 0;
#X restore -37 551 pd freq_mode;
#X floatatom 235 297 5 0 0 0 - - -, f 5;
#N canvas 497 118 249 300 panning 0;
#X obj 7 863 outlet~;
#X obj 128 862 outlet~;
#X msg 44 738 \$1 20;
#X obj 6 824 *~;
#X obj 128 824 *~;
#X msg 142 741 \$1 20;
#X obj 142 644 t b f;
#X obj 44 716 * 0.5;
#X obj 44 641 t b f;
#X obj 71 693 + 1;
#X obj 71 672 * -1;
#X obj 45 791 *~;
#X obj 143 793 *~;
#X obj 6 604 inlet~;
#X obj 136 612 inlet;
#X floatatom 202 734 5 0 0 0 - - -, f 5;
#X obj 142 696 * 1;
#X msg 142 668 0.5;
#X msg 44 672 0.5;
#X obj 44 760 vline~;
#X obj 142 761 vline~;
#X connect 2 0 19 0;
#X connect 3 0 0 0;
#X connect 4 0 1 0;
#X connect 5 0 20 0;
#X connect 6 0 17 0;
#X connect 6 1 16 1;
#X connect 7 0 2 0;
#X connect 8 0 18 0;
#X connect 8 1 10 0;
#X connect 9 0 7 1;
#X connect 10 0 9 0;
#X connect 11 0 3 1;
#X connect 12 0 4 1;
#X connect 13 0 3 0;
#X connect 13 0 4 0;
#X connect 14 0 8 0;
#X connect 14 0 6 0;
#X connect 16 0 5 0;
#X connect 16 0 15 0;
#X connect 17 0 16 0;
#X connect 18 0 7 0;
#X connect 19 0 11 0;
#X connect 19 0 11 1;
#X connect 20 0 12 0;
#X connect 20 0 12 1;
#X restore 134 507 pd panning;
#X obj 135 589 *~;
#X obj 361 590 *~;
#X msg 73 236 900;
#X obj 336 417 moses 1;
#X floatatom 209 507 5 0 0 0 - - -, f 5;
#X obj 134 458 hip~ 3;
#X obj 134 481 lop~ 300;
#X obj 375 526 vline~;
#X msg 272 440 0;
#X obj 334 231 moses 180;
#X obj 334 252 / 180;
#X obj 271 208 trigger f f;
#X obj 271 242 * 14;
#X obj 193 237 + 200;
#X obj 415 402 s SYNTH_FREE;
#X obj 415 379 pack \$2 \$1;
#X obj 584 236 t b f;
#X obj 623 257 t b f;
#X obj 662 279 t b f;
#X obj 271 297 pack f f f;
#X msg 271 319 \$2 \$3 -0.1 0 \$1 -0.3;
#X text 406 293 1-destination value2- time (ms)3- curve factor (-1
to 1);
#X msg 375 505 \$1 60;
#X obj 73 214 initbang;
#X obj 542 192 r ATTACK_0;
#X connect 2 0 3 0;
#X connect 3 0 43 0;
#X connect 4 0 13 0;
#X connect 6 0 8 0;
#X connect 8 0 5 0;
#X connect 9 0 10 0;
#X connect 10 0 5 0;
#X connect 11 0 44 0;
#X connect 12 0 11 0;
#X connect 13 0 15 0;
#X connect 13 1 16 0;
#X connect 13 2 19 0;
#X connect 15 0 18 0;
#X connect 16 0 17 0;
#X connect 17 1 36 0;
#X connect 18 1 49 0;
#X connect 18 1 29 0;
#X connect 19 0 21 0;
#X connect 19 1 2 0;
#X connect 20 0 35 0;
#X connect 21 0 69 0;
#X connect 23 0 30 0;
#X connect 25 0 26 0;
#X connect 28 0 11 1;
#X connect 28 1 73 0;
#X connect 29 0 48 0;
#X connect 29 0 12 1;
#X connect 30 0 20 0;
#X connect 31 0 39 0;
#X connect 32 0 76 0;
#X connect 33 0 75 0;
#X connect 34 0 74 0;
#X connect 35 0 25 0;
#X connect 36 0 71 0;
#X connect 37 0 66 0;
#X connect 38 0 22 0;
#X connect 40 0 44 1;
#X connect 41 0 4 0;
#X connect 42 0 61 0;
#X connect 44 0 63 0;
#X connect 50 0 51 0;
#X connect 51 0 57 1;
#X connect 51 0 62 0;
#X connect 52 0 80 0;
#X connect 53 0 54 0;
#X connect 53 1 52 1;
#X connect 54 0 52 0;
#X connect 57 0 58 0;
#X connect 57 1 59 0;
#X connect 58 0 46 0;
#X connect 59 0 47 0;
#X connect 60 0 12 0;
#X connect 61 1 53 0;
#X connect 63 0 64 0;
#X connect 64 0 57 0;
#X connect 65 0 59 1;
#X connect 65 0 58 1;
#X connect 66 0 80 0;
#X connect 67 0 68 0;
#X connect 68 0 77 1;
#X connect 69 0 70 0;
#X connect 69 1 67 0;
#X connect 70 0 77 0;
#X connect 70 0 56 0;
#X connect 71 0 12 2;
#X connect 73 0 72 0;
#X connect 74 0 31 0;
#X connect 74 1 31 1;
#X connect 75 0 31 0;
#X connect 75 1 31 2;
#X connect 76 0 31 0;
#X connect 76 1 31 3;
#X connect 77 0 78 0;
#X connect 78 0 28 0;
#X connect 80 0 65 0;
#X connect 81 0 60 0;
#X connect 82 0 31 0;
#X connect 82 0 77 2;
