#N canvas 642 279 879 687 10;
#X obj 87 16 inlet;
#X obj 167 447 *~;
#X obj 168 266 synth_fm \$1;
#X obj 16 408 i;
#N canvas 166 123 223 291 impact_velocity 0;
#X obj 74 46 inlet;
#X obj 36 264 outlet;
#X obj 36 184 onebang;
#X obj 74 124 bang;
#X obj 36 215 f 0;
#X obj 113 124 t b f;
#X obj 74 97 moses 0;
#X connect 0 0 6 0;
#X connect 2 0 4 0;
#X connect 3 0 2 1;
#X connect 4 0 1 0;
#X connect 5 0 2 0;
#X connect 5 1 4 1;
#X connect 6 0 3 0;
#X connect 6 1 5 0;
#X restore 564 278 pd impact_velocity;
#N canvas 827 95 450 300 control_structure 0;
#X obj 21 13 inlet;
#X obj 101 13 inlet;
#X obj 181 13 inlet;
#X obj 311 13 inlet;
#X text 59 13 posX;
#X text 140 13 posY;
#X text 220 13 posZ;
#X restore 16 499 pd control_structure;
#X obj 16 452 mtof;
#X floatatom 16 474 5 0 0 0 - - -;
#X obj 666 589 bell-env~;
#X obj 391 329 cyclone/curve~;
#X obj 16 386 * 44;
#X obj 16 430 + 30;
#X obj 331 423 r ALL_OFF;
#X obj 237 16 r MATERIALS;
#N canvas 316 82 711 595 materials 0;
#X obj 151 465 bp~ 440 80;
#X obj 230 465 bp~ 440 80;
#X obj 309 465 bp~ 440 80;
#X obj 389 465 bp~ 440 80;
#X obj 403 288 unpack 1 2 3 4 5;
#X obj 179 404 line;
#X obj 497 404 line;
#X obj 417 404 line;
#X obj 337 405 line;
#X obj 258 404 line;
#X obj 35 37 inlet~;
#X text 629 98 metal;
#X text 627 120 glass 2;
#X text 599 208 wood;
#X msg 481 231 109 230 352 413 10;
#X msg 481 165 1245 1503 2131 2575 100;
#X text 608 186 plastic;
#X text 628 165 china;
#X text 628 142 glass 1;
#X text 600 230 cardboard;
#X msg 481 187 627 781 972 1184 70;
#X msg 481 121 2312 2466 3200 5314 380;
#X msg 480 143 1679 1233 4251 4640 340;
#X msg 481 209 221 333 426 527 40;
#X msg 481 99 3454 5645 6433 8945 200;
#X obj 397 74 sel 0 1 2 3 4 5 6;
#X obj 397 41 inlet;
#X obj 284 546 outlet~;
#X obj 258 382 pack f 100;
#X obj 179 382 pack f 100;
#X obj 497 382 pack f 100;
#X obj 417 382 pack f 100;
#X obj 337 382 pack f 100;
#X connect 0 0 27 0;
#X connect 1 0 27 0;
#X connect 2 0 27 0;
#X connect 3 0 27 0;
#X connect 4 0 29 0;
#X connect 4 1 28 0;
#X connect 4 2 32 0;
#X connect 4 3 31 0;
#X connect 4 4 30 0;
#X connect 5 0 0 1;
#X connect 6 0 0 2;
#X connect 6 0 1 2;
#X connect 6 0 2 2;
#X connect 6 0 3 2;
#X connect 7 0 3 1;
#X connect 8 0 2 1;
#X connect 9 0 1 1;
#X connect 10 0 0 0;
#X connect 10 0 3 0;
#X connect 10 0 2 0;
#X connect 10 0 1 0;
#X connect 14 0 4 0;
#X connect 15 0 4 0;
#X connect 20 0 4 0;
#X connect 21 0 4 0;
#X connect 22 0 4 0;
#X connect 23 0 4 0;
#X connect 24 0 4 0;
#X connect 25 0 14 0;
#X connect 25 1 23 0;
#X connect 25 2 20 0;
#X connect 25 3 15 0;
#X connect 25 4 22 0;
#X connect 25 5 21 0;
#X connect 25 6 24 0;
#X connect 26 0 25 0;
#X connect 28 0 9 0;
#X connect 29 0 5 0;
#X connect 30 0 6 0;
#X connect 31 0 7 0;
#X connect 32 0 8 0;
#X restore 167 517 pd materials;
#X obj 167 614 throw~ leftSig-\$2;
#X obj 419 614 throw~ reightSig-\$2;
#X obj 434 513 / 1;
#X obj 434 469 t b f;
#X msg 434 491 1;
#N canvas 433 184 253 300 freq_mode 0;
#X msg 66 225 256;
#X msg 82 246 288;
#X msg 98 267 320;
#X msg 114 288 352;
#X msg 130 309 384;
#X msg 146 330 416;
#X msg 34 183 448;
#X msg 50 204 480;
#X obj 34 347 change;
#X obj 34 156 select 0 1 2 3 4 5 6 7;
#X obj 34 131 i;
#X obj 34 109 * 7;
#X connect 0 0 8 0;
#X connect 1 0 8 0;
#X connect 2 0 8 0;
#X connect 3 0 8 0;
#X connect 4 0 8 0;
#X connect 5 0 8 0;
#X connect 6 0 8 0;
#X connect 7 0 8 0;
#X connect 9 0 6 0;
#X connect 9 1 7 0;
#X connect 9 2 0 0;
#X connect 9 3 1 0;
#X connect 9 4 2 0;
#X connect 9 5 3 0;
#X connect 9 6 4 0;
#X connect 9 7 5 0;
#X connect 10 0 9 0;
#X connect 11 0 10 0;
#X restore 21 551 pd freq_mode;
#N canvas 983 498 265 346 panning 0;
#X obj 14 280 outlet~;
#X obj 135 279 outlet~;
#X msg 51 155 \$1 20;
#X obj 13 241 *~;
#X obj 135 241 *~;
#X msg 149 158 \$1 20;
#X obj 149 61 t b f;
#X obj 51 133 * 0.5;
#X obj 51 58 t b f;
#X obj 78 110 + 1;
#X obj 78 89 * -1;
#X obj 52 208 *~;
#X obj 150 210 *~;
#X obj 13 21 inlet~;
#X obj 149 29 inlet;
#X floatatom 209 151 5 0 0 0 - - -;
#X obj 149 113 * 1;
#X msg 149 85 0.5;
#X msg 51 89 0.5;
#X obj 51 177 vline~;
#X obj 149 178 vline~;
#X connect 2 0 19 0;
#X connect 3 0 0 0;
#X connect 4 0 1 0;
#X connect 5 0 20 0;
#X connect 6 0 17 0;
#X connect 6 1 16 1;
#X connect 7 0 2 0;
#X connect 8 0 18 0;
#X connect 8 1 10 0;
#X connect 9 0 7 1;
#X connect 10 0 9 0;
#X connect 11 0 3 1;
#X connect 12 0 4 1;
#X connect 13 0 3 0;
#X connect 13 0 4 0;
#X connect 14 0 8 0;
#X connect 14 0 6 0;
#X connect 16 0 5 0;
#X connect 16 0 15 0;
#X connect 17 0 16 0;
#X connect 18 0 7 0;
#X connect 19 0 11 0;
#X connect 19 0 11 1;
#X connect 20 0 12 0;
#X connect 20 0 12 1;
#X restore 668 564 pd panning;
#X obj 167 589 *~;
#X obj 419 590 *~;
#X obj 395 447 moses 1;
#X floatatom 743 564 5 0 0 0 - - -;
#X obj 167 472 hip~ 3;
#X obj 167 495 lop~ 300;
#X obj 434 556 vline~;
#X msg 331 470 0;
#X obj 428 239 r ATTACK_0;
#X obj 725 535 / 60;
#X obj 168 106 loadbang;
#X msg 391 308 \$1 \$2 -0.7 0 \$3 -0.3;
#X msg 168 128 1000;
#X obj 16 359 distance_target 32 32;
#X obj 391 206 metro;
#X obj 391 286 pack 0.15 f f;
#X obj 261 176 * 256;
#X obj 199 199 mtof;
#X floatatom 426 182 5 0 0 0 - - -;
#X obj 418 159 * 1000;
#X floatatom 564 258 5 0 0 0 - - -;
#X obj 564 236 abs;
#X msg 434 535 \$1 60;
#X floatatom 272 203 5 0 0 0 - - -;
#X floatatom 209 223 5 0 0 0 - - -;
#X obj 199 176 * 70;
#X obj 564 196 * 1000;
#X obj 564 216 - 1000;
#X obj 66 240 min~;
#X obj 91 187 -~ 1;
#X obj 91 212 *~ -50;
#X obj 65 123 mtof;
#X obj 65 154 phasor~ 220;
#X text 405 370 1 - destination value 2 - time (ms) 3 - curve factor
(-1 to 1);
#X obj 725 512 r \$2_\$1-posY;
#X obj 395 423 r SUMM;
#X obj 391 116 r \$1-alive;
#X obj 564 176 r \$1-depth;
#X obj 199 155 r \$1-posY;
#X obj 261 155 r \$1-posX;
#X obj 418 136 r \$1-posX;
#X floatatom 347 163 5 0 0 0 - - -;
#X floatatom 395 471 5 0 0 0 - - -;
#X connect 1 0 26 0;
#X connect 2 0 1 0;
#X connect 3 0 11 0;
#X connect 6 0 7 0;
#X connect 9 0 1 1;
#X connect 10 0 3 0;
#X connect 11 0 6 0;
#X connect 12 0 29 0;
#X connect 13 0 14 1;
#X connect 14 0 22 0;
#X connect 14 0 23 0;
#X connect 17 0 44 0;
#X connect 18 0 19 0;
#X connect 18 1 17 1;
#X connect 19 0 17 0;
#X connect 22 0 15 0;
#X connect 23 0 16 0;
#X connect 24 1 18 0;
#X connect 24 1 64 0;
#X connect 26 0 27 0;
#X connect 27 0 14 0;
#X connect 28 0 23 1;
#X connect 28 0 22 1;
#X connect 29 0 44 0;
#X connect 30 0 37 1;
#X connect 31 0 21 1;
#X connect 31 0 25 0;
#X connect 32 0 34 0;
#X connect 33 0 9 0;
#X connect 34 0 2 0;
#X connect 35 0 10 0;
#X connect 36 0 37 0;
#X connect 37 0 33 0;
#X connect 38 0 2 2;
#X connect 38 0 45 0;
#X connect 39 0 46 0;
#X connect 39 0 2 1;
#X connect 41 0 40 0;
#X connect 41 0 36 1;
#X connect 43 0 37 2;
#X connect 43 0 42 0;
#X connect 44 0 28 0;
#X connect 47 0 39 0;
#X connect 48 0 49 0;
#X connect 49 0 43 0;
#X connect 51 0 52 0;
#X connect 52 0 50 1;
#X connect 53 0 54 0;
#X connect 54 0 50 0;
#X connect 54 0 51 0;
#X connect 56 0 31 0;
#X connect 57 0 24 0;
#X connect 58 0 36 0;
#X connect 58 0 63 0;
#X connect 59 0 48 0;
#X connect 60 0 47 0;
#X connect 61 0 38 0;
#X connect 62 0 41 0;
