#N canvas 17 24 711 677 10;
#X obj 120 502 osc~;
#X msg 404 502 0;
#X msg 19 694 symbol W;
#X obj 119 242 route \$1;
#X obj 19 719 labdoma_mapping \$2;
#X obj 404 435 bang;
#X obj 146 644 *~;
#X obj 19 741 curve_exp;
#X obj 119 263 unpack float float float float;
#X obj 158 409 mtof;
#X obj 216 502 osc~;
#X obj 146 572 *~;
#X obj 119 337 moses 0;
#X obj 20 309 print;
#X obj 20 246 bng 15 250 50 0 empty empty empty 17 7 0 10 -262144 -1
-1;
#X obj 20 222 inlet;
#X obj 20 266 \$1;
#X obj 48 246 bng 15 250 50 0 empty empty empty 17 7 0 10 -262144 -1
-1;
#X obj 48 266 \$2;
#X obj 404 391 change;
#X obj 443 435 - 0;
#X obj 472 222 r threshold;
#X obj 216 337 moses 0;
#X msg 119 409 0;
#X msg 216 379 0;
#X obj 120 480 vline~;
#X obj 119 388 bang;
#X obj 216 358 bang;
#X obj 216 480 vline~;
#X obj 158 388 + 18;
#X obj 255 378 / 60;
#X obj 255 420 * 60;
#X obj 255 358 clip 0 60;
#X obj 457 502 / 1;
#X obj 472 479 - 0;
#X obj 404 413 moses 0;
#X obj 515 305 > 0;
#X obj 515 326 change;
#X obj 515 348 s \$2_\$1-STATE;
#X obj 119 221 r OSC_SYNTH_\$2;
#X obj 344 222 r SYNTH_SUMM_\$2;
#X obj 147 826 throw~ leftSig-\$2;
#X obj 366 826 throw~ reightSig-\$2;
#X obj 380 705 / 1;
#X obj 380 661 t b f;
#X msg 380 683 1;
#X obj 267 781 *~;
#X obj 341 639 moses 1;
#X obj 380 748 vline~;
#X obj 280 639 r ALL_OFF;
#X msg 280 662 0;
#X msg 472 457 255;
#X obj 599 523 vline~;
#X obj 599 544 cos~;
#X obj 599 447 r env;
#X msg 599 471 set \$1 \$2;
#X msg 599 501 -0.25 \, 0.25 \$1;
#X msg 543 471 -0.25;
#X obj 543 447 loadbang;
#X msg 216 457 \$1 20;
#X msg 120 457 \$1 20;
#X obj 404 551 pack f f;
#X obj 561 222 r ATTACK_\$2;
#X obj 146 669 hip~ 3;
#X obj 146 692 lop~ 300;
#X obj 255 398 mapping/curve -0.1;
#X msg 380 726 \$1 100;
#X obj 300 289 s \$0-zone;
#X obj 119 289 s \$0-posX;
#X obj 179 289 s \$0-posY;
#X obj 240 289 s \$0-posZ;
#X obj 119 311 r \$0-posX;
#X obj 216 311 r \$0-posY;
#X obj 404 258 r \$0-posZ;
#X obj 404 573 vline~;
#X obj 216 524 *~ 0.6;
#X obj 120 524 *~ 0.6;
#X obj 166 362 s \$0-X;
#X obj 472 385 t b f f;
#X obj 404 281 trigger float float;
#X connect 0 0 76 0;
#X connect 1 0 61 0;
#X connect 2 0 4 0;
#X connect 3 0 8 0;
#X connect 5 0 1 0;
#X connect 6 0 63 0;
#X connect 8 0 68 0;
#X connect 8 1 69 0;
#X connect 8 2 70 0;
#X connect 8 3 67 0;
#X connect 9 0 60 0;
#X connect 10 0 75 0;
#X connect 11 0 6 0;
#X connect 12 0 26 0;
#X connect 12 1 29 0;
#X connect 12 1 77 0;
#X connect 14 0 16 0;
#X connect 16 0 13 0;
#X connect 17 0 18 0;
#X connect 18 0 13 0;
#X connect 19 0 35 0;
#X connect 20 0 33 0;
#X connect 21 0 78 0;
#X connect 22 0 27 0;
#X connect 22 1 32 0;
#X connect 23 0 60 0;
#X connect 24 0 59 0;
#X connect 25 0 0 0;
#X connect 26 0 23 0;
#X connect 27 0 24 0;
#X connect 28 0 10 0;
#X connect 29 0 9 0;
#X connect 30 0 65 0;
#X connect 31 0 59 0;
#X connect 32 0 30 0;
#X connect 33 0 61 0;
#X connect 34 0 33 1;
#X connect 35 0 5 0;
#X connect 35 1 20 0;
#X connect 36 0 37 0;
#X connect 37 0 38 0;
#X connect 39 0 3 0;
#X connect 40 0 47 0;
#X connect 43 0 66 0;
#X connect 44 0 45 0;
#X connect 44 1 43 1;
#X connect 45 0 43 0;
#X connect 46 0 41 0;
#X connect 46 0 42 0;
#X connect 47 1 44 0;
#X connect 48 0 46 1;
#X connect 49 0 50 0;
#X connect 50 0 66 0;
#X connect 51 0 34 0;
#X connect 52 0 53 0;
#X connect 54 0 55 0;
#X connect 55 0 56 0;
#X connect 56 0 52 0;
#X connect 57 0 52 0;
#X connect 58 0 57 0;
#X connect 59 0 28 0;
#X connect 60 0 25 0;
#X connect 61 0 74 0;
#X connect 62 0 61 1;
#X connect 63 0 64 0;
#X connect 64 0 46 0;
#X connect 65 0 31 0;
#X connect 66 0 48 0;
#X connect 71 0 12 0;
#X connect 72 0 22 0;
#X connect 73 0 79 0;
#X connect 74 0 6 1;
#X connect 75 0 11 1;
#X connect 76 0 11 0;
#X connect 78 0 51 0;
#X connect 78 1 34 1;
#X connect 78 2 20 1;
#X connect 79 0 19 0;
#X connect 79 1 36 0;
