#N canvas 180 24 931 677 10;
#X obj 64 318 osc~;
#X msg 409 288 0;
#X msg 42 526 symbol W;
#X obj 124 28 route \$1;
#X obj 42 551 labdoma_mapping \$2;
#X obj 409 221 bang;
#X obj 131 430 *~;
#X obj 42 573 curve_exp;
#X obj 124 49 unpack float float float float;
#X obj 123 145 mtof;
#X obj 220 318 osc~;
#X obj 131 388 *~;
#X obj 64 123 moses 0;
#X obj 25 95 print;
#X obj 25 32 bng 15 250 50 0 empty empty empty 17 7 0 10 -262144 -1
-1;
#X obj 25 8 inlet;
#X obj 25 52 \$1;
#X obj 53 32 bng 15 250 50 0 empty empty empty 17 7 0 10 -262144 -1
-1;
#X obj 53 52 \$2;
#X obj 409 177 change;
#X obj 448 221 - 0;
#X obj 477 8 r threshold;
#X obj 221 123 moses 0;
#X obj 64 145 bang;
#X obj 221 145 bang;
#X obj 282 206 * 60;
#X obj 462 288 / 1;
#X obj 477 265 - 0;
#X obj 409 199 moses 0;
#X obj 520 91 > 0;
#X obj 520 112 change;
#X obj 520 134 s \$2_\$1-STATE;
#X obj 124 7 r OSC_SYNTH_\$2;
#X obj 349 8 r SYNTH_SUMM_\$2;
#X obj 214 635 throw~ leftSig-\$2;
#X obj 382 635 throw~ reightSig-\$2;
#X obj 385 441 / 1;
#X obj 385 397 t b f;
#X msg 385 419 1;
#X obj 214 526 *~;
#X obj 346 375 moses 1;
#X obj 286 492 vline~;
#X obj 285 356 r ALL_OFF;
#X msg 285 438 0;
#X msg 477 243 255;
#X obj 409 337 pack f f;
#X obj 131 455 hip~ 3;
#X obj 131 478 lop~ 300;
#X obj 282 184 mapping/curve -0.1;
#X obj 305 72 s \$0-zone;
#X obj 124 72 s \$0-posX;
#X obj 184 72 s \$0-posY;
#X obj 245 72 s \$0-posZ;
#X obj 64 101 r \$0-posX;
#X obj 221 101 r \$0-posY;
#X obj 409 44 r \$0-posZ;
#X obj 477 171 t b f f;
#X obj 409 67 trigger float float;
#X obj 566 8 r RELEASE_\$2;
#X obj 657 53 granular-delay;
#X obj 566 29 t f f;
#X obj 64 340 *~ 0.3;
#X obj 220 340 *~ 0.3;
#X obj 221 235 pack 0 f;
#X obj 64 166 pack 0 f;
#X obj 282 235 pack f 1;
#X obj 123 166 pack f 1;
#X obj 282 144 clip 0 64;
#X obj 282 164 / 64;
#X obj 631 324 s \$0-XX;
#X obj 283 319 s \$0-YY;
#X obj 409 359 vline~;
#X obj 64 297 vline~;
#X obj 220 296 vline~;
#X obj 286 470 pack f 100;
#X obj 283 296 line;
#X obj 502 418 r \$0-XX;
#X obj 599 418 r \$0-YY;
#X obj 592 213 r \$0-posX;
#X obj 592 236 moses 0;
#X obj 656 236 moses 0;
#X obj 656 213 r \$0-posY;
#X obj 695 324 s \$0-YY;
#X obj 719 236 moses 0;
#X obj 783 236 moses 0;
#X obj 719 213 r \$0-posZ;
#X obj 783 213 r \$0-zone;
#X obj 822 324 s \$0-ZONE;
#X obj 758 324 s \$0-ZZ;
#X obj 553 418 r \$0-ZZ;
#X floatatom 608 442 5 0 0 0 - - -, f 5;
#X floatatom 563 443 5 0 0 0 - - -, f 5;
#X floatatom 511 442 5 0 0 0 - - -, f 5;
#X obj 631 258 moses 64;
#X obj 695 258 moses 64;
#X obj 822 258 moses 200;
#X obj 631 280 / 64;
#X obj 695 280 / 64;
#X floatatom 767 303 5 0 0 0 - - -, f 5;
#X obj 758 280 / 230;
#X obj 758 258 moses 230;
#X floatatom 704 302 5 0 0 0 - - -, f 5;
#X floatatom 640 303 5 0 0 0 - - -, f 5;
#X obj 214 552 chorus;
#X connect 0 0 61 0;
#X connect 1 0 45 0;
#X connect 2 0 4 0;
#X connect 3 0 8 0;
#X connect 5 0 1 0;
#X connect 6 0 46 0;
#X connect 8 0 51 0;
#X connect 8 1 50 0;
#X connect 8 2 52 0;
#X connect 8 3 49 0;
#X connect 9 0 66 0;
#X connect 10 0 62 0;
#X connect 11 0 6 0;
#X connect 12 0 23 0;
#X connect 12 1 9 0;
#X connect 14 0 16 0;
#X connect 16 0 13 0;
#X connect 17 0 18 0;
#X connect 18 0 13 0;
#X connect 19 0 28 0;
#X connect 20 0 26 0;
#X connect 21 0 56 0;
#X connect 22 0 24 0;
#X connect 22 1 67 0;
#X connect 23 0 64 0;
#X connect 24 0 63 0;
#X connect 25 0 65 0;
#X connect 26 0 45 0;
#X connect 27 0 26 1;
#X connect 28 0 5 0;
#X connect 28 1 20 0;
#X connect 29 0 30 0;
#X connect 30 0 31 0;
#X connect 32 0 3 0;
#X connect 33 0 40 0;
#X connect 36 0 74 0;
#X connect 37 0 38 0;
#X connect 37 1 36 1;
#X connect 38 0 36 0;
#X connect 39 0 103 0;
#X connect 40 1 37 0;
#X connect 41 0 39 1;
#X connect 42 0 43 0;
#X connect 43 0 74 0;
#X connect 44 0 27 0;
#X connect 45 0 71 0;
#X connect 46 0 47 0;
#X connect 47 0 39 0;
#X connect 48 0 25 0;
#X connect 53 0 12 0;
#X connect 54 0 22 0;
#X connect 55 0 57 0;
#X connect 56 0 44 0;
#X connect 56 1 27 1;
#X connect 56 2 20 1;
#X connect 57 0 19 0;
#X connect 57 1 29 0;
#X connect 58 0 60 0;
#X connect 60 0 45 1;
#X connect 60 1 63 1;
#X connect 60 1 64 1;
#X connect 61 0 11 0;
#X connect 62 0 11 1;
#X connect 63 0 73 0;
#X connect 64 0 72 0;
#X connect 65 0 73 0;
#X connect 65 0 75 0;
#X connect 66 0 72 0;
#X connect 67 0 68 0;
#X connect 68 0 48 0;
#X connect 71 0 6 1;
#X connect 72 0 0 0;
#X connect 73 0 10 0;
#X connect 74 0 41 0;
#X connect 75 0 70 0;
#X connect 76 0 92 0;
#X connect 77 0 90 0;
#X connect 78 0 79 0;
#X connect 79 1 93 0;
#X connect 80 1 94 0;
#X connect 81 0 80 0;
#X connect 83 1 100 0;
#X connect 84 1 95 0;
#X connect 85 0 83 0;
#X connect 86 0 84 0;
#X connect 89 0 91 0;
#X connect 93 0 96 0;
#X connect 94 0 97 0;
#X connect 96 0 69 0;
#X connect 96 0 102 0;
#X connect 97 0 82 0;
#X connect 97 0 101 0;
#X connect 99 0 98 0;
#X connect 99 0 88 0;
#X connect 100 0 99 0;
#X connect 103 0 34 0;
#X connect 103 1 35 0;
